<svg xmlns="http://www.w3.org/2000/svg" viewBox="0 0 20.13 23">
  <path d="M14.09 12.94c-1.3 0-1.91.72-4.03.72s-2.73-.72-4.02-.72A6.04 6.04 0 000 18.98v1.86A2.16 2.16 0 002.16 23h15.8a2.16 2.16 0 002.17-2.16v-1.86a6.04 6.04 0 00-6.04-6.04zm4.6 7.9a.72.72 0 01-.72.72H2.16a.72.72 0 01-.72-.72v-1.86a4.6 4.6 0 014.6-4.6c.88 0 1.75.71 4.02.71s3.15-.71 4.03-.71a4.6 4.6 0 014.6 4.6zm-8.63-9.34a5.75 5.75 0 005.75-5.75A5.75 5.75 0 0010.06 0a5.75 5.75 0 00-5.75 5.75 5.75 5.75 0 005.75 5.75zm0-10.06a4.32 4.32 0 014.32 4.31 4.32 4.32 0 01-4.32 4.31 4.32 4.32 0 01-4.3-4.3 4.32 4.32 0 014.3-4.32z"/>
</svg>
