<svg xmlns="http://www.w3.org/2000/svg" viewBox="0 0 14.88 17">
  <path d="M10.41 10.1c-.95 0-1.4.53-2.97.53s-2.02-.54-2.98-.54A4.46 4.46 0 000 14.56v.85A1.6 1.6 0 001.6 17h11.68a1.6 1.6 0 001.6-1.6v-.84a4.46 4.46 0 00-4.47-4.47zm2.87 5.3H1.6v-.84a2.87 2.87 0 012.87-2.87 13 13 0 002.98.53 12.87 12.87 0 002.97-.53 2.87 2.87 0 012.87 2.87zM7.44 9.57a4.78 4.78 0 004.78-4.78A4.78 4.78 0 007.44 0a4.78 4.78 0 00-4.78 4.78 4.78 4.78 0 004.78 4.78zm0-7.97a3.2 3.2 0 013.18 3.2 3.2 3.2 0 01-3.18 3.18 3.2 3.2 0 01-3.19-3.19A3.2 3.2 0 017.44 1.6z"/>
</svg>
