<svg xmlns="http://www.w3.org/2000/svg" viewBox="0 0 23 20.12">
  <path d="M22.86 8.86l-2.74-2.24V3.14a.27.27 0 00-.27-.27h-.9a.27.27 0 00-.27.27v2.3L12.4.33a1.68 1.68 0 00-.9-.32 1.68 1.68 0 00-.9.32L.12 8.86a.4.4 0 00-.13.28.42.42 0 00.08.22l.45.56a.4.4 0 00.28.13.42.42 0 00.23-.08l1.83-1.5V19.4a.72.72 0 00.72.72h5.75a.72.72 0 00.72-.72v-5.75l2.87.01v5.76a.72.72 0 00.72.72l5.75-.02a.72.72 0 00.72-.72V8.47l1.84 1.5a.42.42 0 00.23.08.4.4 0 00.27-.13l.46-.56a.42.42 0 00.08-.22.4.4 0 00-.14-.28zm-4.18 9.82h-4.3v-5.75a.72.72 0 00-.72-.72H9.34a.72.72 0 00-.72.71v5.76H4.31V7.3l7.19-5.87 7.18 5.87z"/>
</svg>
