<svg xmlns="http://www.w3.org/2000/svg" width="46.25" height="41"><path d="M0 25.781a3.1 3.1 0 003.094 3.094h30.937a3.1 3.1 0 003.094-3.094V14.437H0zm12.374-4.383a.776.776 0 01.773-.773h8.767a.776.776 0 01.773.773v2.578a.776.776 0 01-.773.773h-8.766a.776.776 0 01-.773-.773zm-8.25 0a.776.776 0 01.773-.773h4.641a.776.776 0 01.773.773v2.578a.776.776 0 01-.773.773H4.897a.776.776 0 01-.773-.773zm33-18.3A3.1 3.1 0 0034.03.004H3.093A3.1 3.1 0 00-.001 3.098v3.094h37.125z" fill="#253b4e"/><path d="M46.249 31.312a9.687 9.687 0 00-9.687-9.687 9.687 9.687 0 00-9.688 9.687 9.687 9.687 0 009.688 9.687 9.687 9.687 0 009.687-9.687zm-10.808 5.129a.625.625 0 01-.884 0l-4.062-4.062a.625.625 0 010-.884l.884-.884a.625.625 0 01.884 0L35 33.348l5.862-5.862a.625.625 0 01.884 0l.884.884a.625.625 0 010 .884z" fill="#17d6b9"/></svg>
