<svg xmlns="http://www.w3.org/2000/svg" width="40.06" height="43.06">
  <path fill="#253b4e" d="M14.44 8.77V0H1.54A1.54 1.54 0 0 0 0 1.55v29.9A1.54 1.54 0 0 0 1.55 33H23.2a1.54 1.54 0 0 0 1.55-1.55V10.31h-8.77a1.55 1.55 0 0 1-1.54-1.54zm10.3-.91a1.54 1.54 0 0 0-.44-1.1L17.99.47a1.55 1.55 0 0 0-1.1-.46h-.39v8.25h8.25z"/>
  <path fill="#17d6b9" d="M40.06 33.38a9.69 9.69 0 0 0-9.69-9.7 9.69 9.69 0 0 0-9.68 9.7 9.69 9.69 0 0 0 9.68 9.68 9.69 9.69 0 0 0 9.7-9.69zm-10.8 5.12a.63.63 0 0 1-.89 0l-4.06-4.06a.63.63 0 0 1 0-.88l.88-.89a.63.63 0 0 1 .89 0l2.73 2.74 5.87-5.86a.63.63 0 0 1 .88 0l.88.88a.63.63 0 0 1 0 .89z"/>
</svg>
