<svg xmlns="http://www.w3.org/2000/svg" width="42.13" height="43.06">
  <path fill="#253b4e" d="M2.06 29.9a3.1 3.1 0 0 0 3.1 3.1h18.56a3.1 3.1 0 0 0 3.1-3.1V8.26H2.05zM19.6 13.4a1.03 1.03 0 0 1 1.03-1.03 1.03 1.03 0 0 1 1.04 1.04v14.43a1.03 1.03 0 0 1-1.04 1.03 1.03 1.03 0 0 1-1.03-1.03zm-6.18 0a1.03 1.03 0 0 1 1.03-1.03 1.03 1.03 0 0 1 1.03 1.04v14.43a1.03 1.03 0 0 1-1.03 1.03 1.03 1.03 0 0 1-1.03-1.03zm-6.2 0a1.03 1.03 0 0 1 1.04-1.03 1.03 1.03 0 0 1 1.03 1.04v14.43a1.03 1.03 0 0 1-1.03 1.03 1.03 1.03 0 0 1-1.03-1.03zM27.85 2.07h-7.73l-.6-1.2A1.7 1.7 0 0 0 18.1 0h-7.37a1.67 1.67 0 0 0-1.37.86l-.6 1.2H1.03A1.03 1.03 0 0 0 0 3.1v2.07a1.03 1.03 0 0 0 1.03 1.03h26.81a1.03 1.03 0 0 0 1.03-1.03V3.09a1.03 1.03 0 0 0-1.03-1.03z"/>
  <path fill="#17d6b9" d="M42.12 33.38a9.69 9.69 0 0 0-9.68-9.7 9.69 9.69 0 0 0-9.7 9.7 9.69 9.69 0 0 0 9.7 9.68 9.69 9.69 0 0 0 9.68-9.69zm-10.8 5.12a.63.63 0 0 1-.89 0l-4.06-4.06a.63.63 0 0 1 0-.88l.88-.89a.63.63 0 0 1 .89 0l2.74 2.74 5.86-5.86a.63.63 0 0 1 .88 0l.89.88a.63.63 0 0 1 0 .89z"/>
</svg>
