<svg xmlns="http://www.w3.org/2000/svg" width="42.125" height="43.062" viewBox="0 0 42.125 43.062"><g transform="translate(-172.563 -205.125)"><path d="M0-12.375a8.249,8.249,0,0,0,8.25-8.25A8.249,8.249,0,0,0,0-28.875a8.249,8.249,0,0,0-8.25,8.25A8.249,8.249,0,0,0,0-12.375Zm5.775,2.062H4.7A11.232,11.232,0,0,1,0-9.281a11.254,11.254,0,0,1-4.7-1.031H-5.775A8.665,8.665,0,0,0-14.437-1.65V1.031a3.1,3.1,0,0,0,3.094,3.094H11.344a3.1,3.1,0,0,0,3.094-3.094V-1.65A8.665,8.665,0,0,0,5.775-10.312Z" transform="translate(187 234)" fill="#253b4e"/><path d="M9.687-7.5A9.687,9.687,0,0,0,0-17.187,9.687,9.687,0,0,0-9.688-7.5,9.687,9.687,0,0,0,0,2.187,9.687,9.687,0,0,0,9.687-7.5ZM-1.121-2.371a.625.625,0,0,1-.884,0L-6.067-6.433a.625.625,0,0,1,0-.884l.884-.884a.625.625,0,0,1,.884,0l2.737,2.737L4.3-11.326a.625.625,0,0,1,.884,0l.884.884a.625.625,0,0,1,0,.884Z" transform="translate(205 246)" fill="#17d6b9"/></g></svg>