<svg xmlns="http://www.w3.org/2000/svg" width="42.13" height="43.06">
  <path fill="#253b4e" d="M25.78 14.44h-1.54V9.8a9.8 9.8 0 0 0-9.8-9.8 9.8 9.8 0 0 0-9.8 9.8v4.64H3.09a3.1 3.1 0 0 0-3.1 3.1V29.9A3.1 3.1 0 0 0 3.1 33h22.7a3.1 3.1 0 0 0 3.09-3.1V17.54a3.1 3.1 0 0 0-3.1-3.1zm-6.7 0H9.8V9.8a4.65 4.65 0 0 1 4.64-4.64 4.65 4.65 0 0 1 4.64 4.64z"/>
  <path fill="#17d6b9" d="M42.12 33.38a9.69 9.69 0 0 0-9.68-9.7 9.69 9.69 0 0 0-9.7 9.7 9.69 9.69 0 0 0 9.7 9.68 9.69 9.69 0 0 0 9.68-9.69zm-10.8 5.12a.63.63 0 0 1-.89 0l-4.06-4.06a.63.63 0 0 1 0-.88l.88-.89a.63.63 0 0 1 .89 0l2.74 2.74 5.86-5.86a.63.63 0 0 1 .88 0l.89.88a.63.63 0 0 1 0 .89z"/>
</svg>
