<svg xmlns="http://www.w3.org/2000/svg" width="18" height="18"><path d="M15.891 15.188a.705.705 0 00-.7-.7.705.705 0 00-.7.7.705.705 0 00.7.7.705.705 0 00.7-.7zm-2.953-.7a.705.705 0 00-.7.7.705.705 0 00.7.7.705.705 0 00.7-.7.705.705 0 00-.701-.704zM18 12.797a1.547 1.547 0 00-1.547-1.547h-3.494l1.982-1.983a1.408 1.408 0 00-.995-2.4h-1.852v-5.46A1.406 1.406 0 0010.687 0H7.312a1.406 1.406 0 00-1.406 1.406v5.46H4.053a1.407 1.407 0 00-.995 2.4l1.983 1.984H1.547A1.547 1.547 0 000 12.797v3.653A1.547 1.547 0 001.547 18h14.906A1.547 1.547 0 0018 16.45zm-9.2.622L3.853 8.473a.283.283 0 01.2-.482h2.978V1.406a.282.282 0 01.281-.281h3.375a.282.282 0 01.281.281v6.585h2.975a.283.283 0 01.2.482L9.2 13.419a.282.282 0 01-.4 0zm8.075-.622v3.653a.423.423 0 01-.422.422H1.547a.423.423 0 01-.422-.422v-3.653a.423.423 0 01.422-.422h4.62l1.838 1.839a1.409 1.409 0 001.99 0l1.839-1.839h4.62a.423.423 0 01.421.422z"/></svg>
