<svg xmlns="http://www.w3.org/2000/svg" width="20.25" height="18">
  <path d="M14.69 11.1a.2.2 0 0 0-.07.14v5.07a.56.56 0 0 1-.56.56H1.7a.56.56 0 0 1-.56-.56V3.94a.56.56 0 0 1 .56-.56h9.57a.22.22 0 0 0 .15-.07l.7-.7a.21.21 0 0 0-.15-.36H1.7A1.69 1.69 0 0 0 0 3.95V16.3A1.69 1.69 0 0 0 1.69 18h12.37a1.69 1.69 0 0 0 1.69-1.69v-5.77a.21.21 0 0 0-.36-.15zm5.13-6.73a1.48 1.48 0 0 0 0-2.09L17.97.43a1.48 1.48 0 0 0-2.09 0L4.89 11.42l-.39 3.51a.74.74 0 0 0 .82.82l3.51-.39zm-3.3 1.7l-8.2 8.21-2.64.3.29-2.64 8.21-8.21zm2.5-3a.35.35 0 0 1 0 .5l-1.7 1.7-2.34-2.34 1.7-1.7a.35.35 0 0 1 .5 0z"/>
</svg>
