<svg xmlns="http://www.w3.org/2000/svg" viewBox="0 0 16.88 3.75">
  <path d="M10.31 1.88a1.8 1.8 0 01-.54 1.32 1.8 1.8 0 01-1.33.55A1.8 1.8 0 017.1 3.2a1.8 1.8 0 01-.55-1.33A1.8 1.8 0 017.11.55 1.8 1.8 0 018.44 0a1.8 1.8 0 011.33.55 1.8 1.8 0 01.54 1.32zM15 0a1.8 1.8 0 011.33.55 1.8 1.8 0 01.54 1.32 1.8 1.8 0 01-.54 1.33 1.8 1.8 0 01-1.33.55 1.8 1.8 0 01-1.33-.55 1.8 1.8 0 01-.54-1.33 1.8 1.8 0 01.54-1.32A1.8 1.8 0 0115 0zM1.87 0A1.8 1.8 0 013.2.55a1.8 1.8 0 01.55 1.32A1.8 1.8 0 013.2 3.2a1.8 1.8 0 01-1.33.55A1.8 1.8 0 01.55 3.2 1.8 1.8 0 010 1.87 1.8 1.8 0 01.55.55 1.8 1.8 0 011.88 0z"/>
</svg>
