<svg xmlns="http://www.w3.org/2000/svg" width="16" height="14" viewBox="0 0 16 14"><path d="M7.5-11.75H1v-.75A.5.5,0,0,0,.5-13h-1a.5.5,0,0,0-.5.5v.75H-7.5a.5.5,0,0,0-.5.5v.5a.5.5,0,0,0,.5.5H-1v.75A.5.5,0,0,0-.5-9h1A.5.5,0,0,0,1-9.5v-.75H7.5a.5.5,0,0,0,.5-.5v-.5A.5.5,0,0,0,7.5-11.75Zm0,10H-3V-2.5A.5.5,0,0,0-3.5-3h-1a.5.5,0,0,0-.5.5v.75H-7.5a.5.5,0,0,0-.5.5v.5a.5.5,0,0,0,.5.5H-5V.5a.5.5,0,0,0,.5.5h1A.5.5,0,0,0-3,.5V-.25H7.5A.5.5,0,0,0,8-.75v-.5A.5.5,0,0,0,7.5-1.75Zm0-5H5V-7.5A.5.5,0,0,0,4.5-8h-1a.5.5,0,0,0-.5.5v.75H-7.5a.5.5,0,0,0-.5.5v.5a.5.5,0,0,0,.5.5H3v.75a.5.5,0,0,0,.5.5h1A.5.5,0,0,0,5-4.5v-.75H7.5a.5.5,0,0,0,.5-.5v-.5A.5.5,0,0,0,7.5-6.75Z" transform="translate(8 13)"/></svg>
