<svg xmlns="http://www.w3.org/2000/svg" width="15.746" height="18"><path d="M12.094 8.438H3.656a.282.282 0 00-.281.281v.562a.282.282 0 00.281.281h8.438a.282.282 0 00.281-.281v-.562a.282.282 0 00-.281-.281zm0 3.375H3.656a.282.282 0 00-.281.281v.562a.282.282 0 00.281.281h8.438a.282.282 0 00.281-.281v-.562a.282.282 0 00-.281-.281zM14.699 0a1.047 1.047 0 00-.608.2l-1.529 1.1-1.357-.977a1.7 1.7 0 00-.988-.32 1.67 1.67 0 00-.984.32l-1.358.978L6.518.324a1.706 1.706 0 00-.988-.32 1.67 1.67 0 00-.984.32l-1.357.977L1.66.201a1.032 1.032 0 00-.608-.2A1.051 1.051 0 000 1.05v15.9A1.051 1.051 0 001.051 18a1.047 1.047 0 00.608-.2l1.529-1.1 1.357.977a1.7 1.7 0 00.988.32 1.67 1.67 0 00.984-.32l1.358-.978 1.357.977a1.706 1.706 0 00.988.32 1.67 1.67 0 00.984-.32l1.357-.977 1.529 1.1a1.032 1.032 0 00.608.2 1.043 1.043 0 001.048-1.049V1.05A1.046 1.046 0 0014.699 0zm-.074 16.798l-1.406-1.013-.658-.474-.657.474-1.357.977a.558.558 0 01-.327.105.564.564 0 01-.33-.109l-1.358-.973-.657-.474-.657.474-1.357.977a.56.56 0 01-.33.105.564.564 0 01-.33-.109l-1.358-.973-.658-.474-.654.475-1.406 1.033V1.202l1.406 1.012.657.475.657-.475 1.357-.977a.558.558 0 01.327-.105.564.564 0 01.33.109l1.357.974.659.474.657-.475 1.357-.977a.56.56 0 01.33-.105.564.564 0 01.33.109l1.357.974.657.475.654-.475 1.408-1.013zM12.094 5.063H3.656a.282.282 0 00-.281.281v.562a.282.282 0 00.281.281h8.438a.282.282 0 00.281-.281v-.562a.282.282 0 00-.281-.281z" /></svg>
