<svg xmlns="http://www.w3.org/2000/svg" width="23" height="23" viewBox="0 0 23 23"><path d="M10.867-15.723,7.1-19.492a2.155,2.155,0,0,0-1.522-.633h-9.17a2.163,2.163,0,0,0-2.156,2.16v5.283a4.353,4.353,0,0,1-1.084-.226.85.85,0,0,0-.223-.03.869.869,0,0,0-.614.26,2.741,2.741,0,0,1-1.873,1.1.886.886,0,0,0-.619.632,2.8,2.8,0,0,1-1.079,1.9.918.918,0,0,0-.228.873,2.832,2.832,0,0,1,0,2.19.919.919,0,0,0,.228.874,2.8,2.8,0,0,1,1.079,1.9.887.887,0,0,0,.619.633l.2.054V2.156A.718.718,0,0,0-9,2.768a.721.721,0,0,0,.7.031L-5.75,1.522-3.2,2.8a.724.724,0,0,0,.322.076H9.344A2.157,2.157,0,0,0,11.5.719V-14.2A2.166,2.166,0,0,0,10.867-15.723ZM5.751-18.661a.707.707,0,0,1,.332.189L9.852-14.7a.706.706,0,0,1,.189.332H5.751ZM-10-5.9a3.7,3.7,0,0,0,0-2.353,3.676,3.676,0,0,0,1.151-2.024,3.544,3.544,0,0,0,1.971-1.154,4.157,4.157,0,0,0,1.132.186,4.134,4.134,0,0,0,1.132-.187,3.592,3.592,0,0,0,1.97,1.154A3.634,3.634,0,0,0-1.5-8.253,3.663,3.663,0,0,0-1.5-5.9a3.676,3.676,0,0,0-1.15,2.02,3.44,3.44,0,0,0-1.673.87A3.446,3.446,0,0,0-5.75-3.319a3.441,3.441,0,0,0-1.431.31,3.486,3.486,0,0,0-1.672-.868A3.635,3.635,0,0,0-10-5.9ZM-5.428.076a.719.719,0,0,0-.643,0L-7.905.993v-2.7l.014.013a.858.858,0,0,0,.613.26.851.851,0,0,0,.456-.133A2,2,0,0,1-5.75-1.881a2.011,2.011,0,0,1,1.072.308.846.846,0,0,0,.457.135.861.861,0,0,0,.612-.26l.015-.014V.993ZM10.063.719a.721.721,0,0,1-.719.719h-11.5V-2.52l.2-.053a.886.886,0,0,0,.619-.633,2.8,2.8,0,0,1,1.079-1.9A.917.917,0,0,0-.031-5.98a2.832,2.832,0,0,1,0-2.19.919.919,0,0,0-.228-.874,2.8,2.8,0,0,1-1.079-1.9.886.886,0,0,0-.618-.633,2.74,2.74,0,0,1-1.874-1.1.858.858,0,0,0-.482-.232v-5.054a.724.724,0,0,1,.719-.723H4.314v4.675a1.073,1.073,0,0,0,1.078,1.075h4.671V.719Z" transform="translate(11.5 20.125)"/></svg>
