<svg xmlns="http://www.w3.org/2000/svg" width="13.5" height="18" >
  <path d="M6.75 3.38a3.38 3.38 0 0 0-3.38 3.37 3.38 3.38 0 0 0 3.38 3.38 3.38 3.38 0 0 0 3.38-3.38 3.38 3.38 0 0 0-3.38-3.38zm0 5.62A2.25 2.25 0 0 1 4.5 6.75 2.25 2.25 0 0 1 6.75 4.5 2.25 2.25 0 0 1 9 6.75 2.25 2.25 0 0 1 6.75 9zm0-9A6.75 6.75 0 0 0 0 6.75c0 2.72.95 3.48 6.06 10.89a.84.84 0 0 0 1.38 0c5.11-7.4 6.06-8.17 6.06-10.89A6.75 6.75 0 0 0 6.75 0zm0 16.66c-4.9-7.08-5.63-7.64-5.63-9.91a5.59 5.59 0 0 1 1.65-3.98 5.59 5.59 0 0 1 3.98-1.64 5.59 5.59 0 0 1 3.98 1.64 5.59 5.59 0 0 1 1.65 3.98c0 2.27-.73 2.83-5.63 9.91z"/>
</svg>
