<svg xmlns="http://www.w3.org/2000/svg" width="25.875" height="23" viewBox="0 0 25.875 23"><path d="M12.832-11.1l-.509-.508a.361.361,0,0,0-.509,0l-.764.762L8.669-13.22a2.859,2.859,0,0,0-.736-2.768L5.9-18.02A7.189,7.189,0,0,0,.8-20.125,7.19,7.19,0,0,0-4.293-18.02l3.084,3.077a2.869,2.869,0,0,0,.332,2.237l-11.1,10.336a3.025,3.025,0,0,0-.075,4.357A3.029,3.029,0,0,0-9.9,2.875a3.03,3.03,0,0,0,2.22-.962L2.791-9.279a2.9,2.9,0,0,0,1.8.126l2.38,2.375-.764.762a.412.412,0,0,0-.105.254.412.412,0,0,0,.105.254L6.719-5a.361.361,0,0,0,.509,0l5.6-5.591a.413.413,0,0,0,.105-.254A.413.413,0,0,0,12.832-11.1ZM-8.734.932A1.582,1.582,0,0,1-9.9,1.437,1.588,1.588,0,0,1-11.029.971,1.577,1.577,0,0,1-11.5-.182a1.577,1.577,0,0,1,.507-1.137L.078-11.627,1.6-10.11ZM7.992-7.8,5.613-10.17l-.586-.584-.8.211A1.426,1.426,0,0,1,2.839-10.9L.547-13.191a1.419,1.419,0,0,1-.362-1.384l.212-.8-.586-.584-1.938-1.934a5.74,5.74,0,0,1,2.929-.8A5.734,5.734,0,0,1,4.877-17L6.914-14.97a1.419,1.419,0,0,1,.362,1.384l-.212.8.586.584,2.38,2.375Z" transform="translate(12.937 20.125)"/></svg>
