<svg xmlns="http://www.w3.org/2000/svg" viewBox="0 0 20.28 18">
  <path d="M11.69 9.67l1.54.24a.93.93 0 01.5.21.95.95 0 01.3.44.9.9 0 01.01.53 1.23 1.23 0 01-.24.48l-1.13 1.09.25 1.54a.87.87 0 01-.14.69 1.03 1.03 0 01-.57.4.93.93 0 01-.7-.07l-1.37-.74-1.37.74a.93.93 0 01-.7.07 1.03 1.03 0 01-.56-.4.87.87 0 01-.14-.68l.24-1.55-1.12-1.1a1.23 1.23 0 01-.25-.47.9.9 0 01.02-.53.95.95 0 01.3-.43.93.93 0 01.49-.22l1.55-.24.67-1.4a.86.86 0 01.52-.43 1.2 1.2 0 01.7 0 .86.86 0 01.53.42zm-.25 2.6l1.34-1.3-1.83-.25-.81-1.65-.8 1.65-1.84.25 1.34 1.3-.32 1.83 1.62-.88 1.62.84zM19.7 0a.54.54 0 01.51.3.5.5 0 01-.05.58L15.1 8.12a6.03 6.03 0 011.23 3.7 6.09 6.09 0 01-.83 3.1 6.1 6.1 0 01-2.25 2.25 6.09 6.09 0 01-3.11.83 6.09 6.09 0 01-3.11-.83 6.1 6.1 0 01-2.25-2.25 6.09 6.09 0 01-.83-3.1 6.03 6.03 0 011.23-3.7L.12.88A.5.5 0 01.07.3a.54.54 0 01.5-.3h5.56a1.14 1.14 0 01.55.14.94.94 0 01.4.42l3.06 5.07L13.2.56a.94.94 0 01.4-.42 1.14 1.14 0 01.54-.14zM1.67 1.13l4.29 6.15A5.77 5.77 0 018.9 5.77L6.13 1.12zM15.2 11.8a4.89 4.89 0 00-.68-2.53 5.16 5.16 0 00-1.85-1.84 4.89 4.89 0 00-2.53-.69 4.89 4.89 0 00-2.53.69 5.16 5.16 0 00-1.85 1.84 4.89 4.89 0 00-.68 2.53 4.89 4.89 0 00.68 2.53 5.16 5.16 0 001.85 1.85 4.89 4.89 0 002.53.68 4.89 4.89 0 002.53-.68 5.16 5.16 0 001.85-1.85 4.89 4.89 0 00.68-2.53zm-.88-4.53l4.3-6.16h-4.47l-2.78 4.65a5.77 5.77 0 012.95 1.5z"/>
</svg>
