<svg xmlns="http://www.w3.org/2000/svg" width="15.75" height="18">
  <path d="M6.75 3.76a.42.42 0 0 0-.42-.42h-1.4a.42.42 0 0 0-.43.42v1.4a.42.42 0 0 0 .42.43h1.4a.42.42 0 0 0 .43-.42zm4.08-.42h-1.4a.42.42 0 0 0-.43.42v1.4a.42.42 0 0 0 .42.43h1.4a.42.42 0 0 0 .43-.42v-1.4a.42.42 0 0 0-.42-.43zm-4.5 3.38h-1.4a.42.42 0 0 0-.43.42v1.4a.42.42 0 0 0 .42.43h1.4a.42.42 0 0 0 .43-.43v-1.4a.42.42 0 0 0-.42-.43zm4.5 0h-1.4a.42.42 0 0 0-.43.42v1.4a.42.42 0 0 0 .42.43h1.4a.42.42 0 0 0 .43-.43v-1.4a.42.42 0 0 0-.42-.43zm-4.5 3.37h-1.4a.42.42 0 0 0-.43.42v1.4a.42.42 0 0 0 .42.43h1.4a.42.42 0 0 0 .43-.42v-1.4a.42.42 0 0 0-.42-.43zm4.5 0h-1.4a.42.42 0 0 0-.43.42v1.4a.42.42 0 0 0 .42.43h1.4a.42.42 0 0 0 .43-.42v-1.4a.42.42 0 0 0-.42-.43zm4.92 7.2a.42.42 0 0 0-.42-.41h-.7V.84a.84.84 0 0 0-.85-.84H1.97a.84.84 0 0 0-.84.84v16.04h-.7a.42.42 0 0 0-.43.42v.7h15.75zm-2.25-.41H9v-3a.42.42 0 0 0-.43-.42h-1.4a.42.42 0 0 0-.42.43v2.99h-4.5V1.13H13.5z"/>
</svg>
