<svg xmlns="http://www.w3.org/2000/svg" width="18.75" height="25" viewBox="0 0 18.75 25"><path d="M7.031-18.75H2.705a2.585,2.585,0,0,0,.029-.391A2.736,2.736,0,0,0,0-21.875a2.736,2.736,0,0,0-2.734,2.734,2.585,2.585,0,0,0,.029.391H-7.031a2.344,2.344,0,0,0-2.344,2.344V.781A2.344,2.344,0,0,0-7.031,3.125H7.031A2.344,2.344,0,0,0,9.375.781V-16.406A2.344,2.344,0,0,0,7.031-18.75ZM0-20.312a1.169,1.169,0,0,1,1.172,1.172A1.169,1.169,0,0,1,0-17.969a1.169,1.169,0,0,1-1.172-1.172A1.169,1.169,0,0,1,0-20.312ZM7.812.781a.784.784,0,0,1-.781.781H-7.031A.784.784,0,0,1-7.813.781V-16.406a.784.784,0,0,1,.781-.781h2.344v.977a.588.588,0,0,0,.586.586H4.1a.588.588,0,0,0,.586-.586v-.977H7.031a.784.784,0,0,1,.781.781ZM4.936-10.762a.591.591,0,0,0-.83,0l-5.747,5.7L-4.1-7.534a.586.586,0,0,0-.83,0l-.415.415a.586.586,0,0,0,0,.83l3.291,3.3a.586.586,0,0,0,.83,0L5.356-9.517a.591.591,0,0,0,0-.83Z" transform="translate(9.375 21.875)"/></svg>
