<svg xmlns="http://www.w3.org/2000/svg" width="20" height="15"><path d="M18.125 0H1.875A1.875 1.875 0 000 1.875v11.25A1.875 1.875 0 001.875 15h16.25A1.875 1.875 0 0020 13.125V1.875A1.875 1.875 0 0018.125 0zm.625 13.125a.626.626 0 01-.625.625H1.875a.626.626 0 01-.625-.625V1.875a.626.626 0 01.625-.625h16.25a.626.626 0 01.625.625zM4.375 6.563a2.188 2.188 0 002.187-2.187 2.188 2.188 0 00-2.187-2.187 2.188 2.188 0 00-2.187 2.187 2.188 2.188 0 002.187 2.187zm0-3.125a.939.939 0 01.937.937.939.939 0 01-.937.937.939.939 0 01-.937-.937.939.939 0 01.937-.937zm8.087.9L8.75 8.049 7.538 6.837a.937.937 0 00-1.326 0l-3.437 3.438a1.077 1.077 0 00-.275.663v1.094a.469.469 0 00.469.469h14.062a.469.469 0 00.469-.47V8.438a.938.938 0 00-.275-.663l-3.437-3.438a.938.938 0 00-1.326 0zm3.788 6.912H3.75v-.183l3.125-3.125L8.75 9.817l4.375-4.375 3.125 3.125z"/></svg>
