<svg xmlns="http://www.w3.org/2000/svg" width="23" height="23" viewBox="0 0 23 23"><path d="M7.99-6.455a12.166,12.166,0,0,0,2.5-2.866.365.365,0,0,0-.13-.5l-.623-.361a.355.355,0,0,0-.48.124,10.728,10.728,0,0,1-2,2.345L3.771-13.762a4.259,4.259,0,0,0,.541-2.051A4.312,4.312,0,0,0,0-20.125a4.312,4.312,0,0,0-4.312,4.312,4.262,4.262,0,0,0,.541,2.051L-7.183-7.853A10.583,10.583,0,0,1-9.059-10.06a.355.355,0,0,0-.48-.124l-.623.361a.364.364,0,0,0-.13.5A12,12,0,0,0-7.911-6.591L-11.5-.375l.315,2.617a.72.72,0,0,0,.713.633.716.716,0,0,0,.283-.058l2.423-1.035,3.542-6.135A12.008,12.008,0,0,0,.1-3.53a12.145,12.145,0,0,0,4.161-.756l3.5,6.067,2.423,1.035a.717.717,0,0,0,1-.575L11.5-.375ZM6.114-6.829a10.812,10.812,0,0,1-1.244.721l-3.291-5.7A4.288,4.288,0,0,0,2.8-12.561ZM0-18.687a2.875,2.875,0,0,1,2.875,2.875A2.875,2.875,0,0,1,0-12.937a2.875,2.875,0,0,1-2.875-2.875A2.875,2.875,0,0,1,0-18.687ZM-8.771.648l-1.1.47-.143-1.189L-2.8-12.561a4.287,4.287,0,0,0,1.225.753ZM.1-4.968A10.564,10.564,0,0,1-3.5-5.61l3.406-5.9c.031,0,.06.009.092.009s.061-.009.092-.009L3.529-5.554A10.7,10.7,0,0,1,.1-4.968ZM9.872,1.118l-1.1-.47L5.589-4.862a12.325,12.325,0,0,0,1.243-.723L10.015-.071Z" transform="translate(11.5 20.125)"/></svg>
