<svg xmlns="http://www.w3.org/2000/svg" width="22" height="22"><path d="M18.562 8.25h-.687V4.694a1.376 1.376 0 00-.4-.972L14.155.403a1.375 1.375 0 00-.972-.4H5.435a1.343 1.343 0 00-1.31 1.375V8.25h-.687A3.438 3.438 0 000 11.688v4.125a.687.687 0 00.687.687h3.437v4.812a.687.687 0 00.687.687h12.376a.687.687 0 00.687-.687V16.5h3.437a.687.687 0 00.689-.687v-4.125a3.438 3.438 0 00-3.438-3.438zM13.75 1.944l2.181 2.181H13.75zm-8.245-.569h6.87v2.75A1.375 1.375 0 0013.75 5.5h2.75v2.75h-11zM16.5 20.625h-11V16.5h11zm4.125-5.5H1.375v-3.437a2.065 2.065 0 012.062-2.063h15.125a2.065 2.065 0 012.063 2.063zm-3.438-3.781a1.031 1.031 0 00-1.031 1.031 1.032 1.032 0 001.031 1.031 1.032 1.032 0 001.032-1.031 1.031 1.031 0 00-1.032-1.031z"/></svg>
