<svg xmlns="http://www.w3.org/2000/svg" width="20" height="20"><path d="M7.88 2.424a2.5 2.5 0 014.24 0l1.807 2.892-2.039-.471a.469.469 0 00-.562.351l-.07.3a.469.469 0 00.351.562l3.66.845a.469.469 0 00.562-.351l.845-3.66a.469.469 0 00-.351-.562l-.3-.07a.469.469 0 00-.562.351l-.47 2.037-1.811-2.887a3.752 3.752 0 00-6.36 0L5.125 4.475a.469.469 0 00.149.646l.265.166a.469.469 0 00.646-.149zm11.545 9.339l-2.068-3.312a.469.469 0 00-.646-.151l-.264.165a.469.469 0 00-.149.646l2.069 3.314a2.5 2.5 0 01-2.12 3.825h-4.113l1.479-1.479a.469.469 0 000-.663l-.221-.221a.469.469 0 00-.663 0l-2.656 2.657a.469.469 0 000 .663l2.656 2.656a.469.469 0 00.663 0l.221-.221a.469.469 0 000-.663L12.134 17.5h4.111a3.752 3.752 0 003.18-5.737zm-17.792.662l2.18-3.49.47 2.038a.469.469 0 00.562.351l.3-.07a.469.469 0 00.355-.563l-.845-3.66a.469.469 0 00-.562-.351l-3.66.845a.469.469 0 00-.351.562l.07.3a.469.469 0 00.562.351l2.039-.471-2.18 3.49A3.752 3.752 0 003.754 17.5h3.9a.469.469 0 00.469-.469v-.312a.469.469 0 00-.469-.469h-3.9a2.5 2.5 0 01-2.121-3.825z"/></svg>
