<svg xmlns="http://www.w3.org/2000/svg" width="13.5" height="18">
  <path d="M11.81 2.25H8.7a1.86 1.86 0 0 0 .02-.28A1.97 1.97 0 0 0 6.75 0a1.97 1.97 0 0 0-1.97 1.97 1.86 1.86 0 0 0 .02.28H1.7A1.69 1.69 0 0 0 0 3.94V16.3A1.69 1.69 0 0 0 1.69 18H11.8a1.69 1.69 0 0 0 1.69-1.69V3.94a1.69 1.69 0 0 0-1.69-1.69zM6.75 1.12a.84.84 0 0 1 .84.85.84.84 0 0 1-.84.84.84.84 0 0 1-.84-.84.84.84 0 0 1 .84-.84zm5.63 15.2a.56.56 0 0 1-.57.55H1.7a.56.56 0 0 1-.56-.56V3.94a.56.56 0 0 1 .56-.56h1.68v.7a.42.42 0 0 0 .43.42h5.9a.42.42 0 0 0 .43-.42v-.7h1.68a.56.56 0 0 1 .56.56z"/>
</svg>
