<svg xmlns="http://www.w3.org/2000/svg" width="16.469" height="14.875" viewBox="0 0 16.469 14.875"><path d="M1.594-2.391H-.531a.531.531,0,0,0-.531.531v.531A.531.531,0,0,0-.531-.8H1.594a.531.531,0,0,0,.531-.531v-.531A.531.531,0,0,0,1.594-2.391Zm-4.648.266H-4.516V-13.281a.531.531,0,0,0-.531-.531h-.531a.531.531,0,0,0-.531.531V-2.125H-7.571a.4.4,0,0,0-.4.4.459.459,0,0,0,.109.274L-5.6.938a.456.456,0,0,0,.29.125.456.456,0,0,0,.29-.125l2.258-2.391a.459.459,0,0,0,.109-.274A.4.4,0,0,0-3.055-2.125Zm8.9-6.641H-.531a.531.531,0,0,0-.531.531V-7.7a.531.531,0,0,0,.531.531H5.844A.531.531,0,0,0,6.375-7.7v-.531A.531.531,0,0,0,5.844-8.766Zm2.125-3.187h-8.5a.531.531,0,0,0-.531.531v.531a.531.531,0,0,0,.531.531h8.5a.531.531,0,0,0,.531-.531v-.531A.531.531,0,0,0,7.969-11.953ZM3.719-5.578H-.531a.531.531,0,0,0-.531.531v.531a.531.531,0,0,0,.531.531h4.25a.531.531,0,0,0,.531-.531v-.531A.531.531,0,0,0,3.719-5.578Z" transform="translate(7.969 13.813)"/></svg>
