<svg xmlns="http://www.w3.org/2000/svg" width="18" height="18">
  <path d="M15.9 15.19a.7.7 0 0 0-.7-.7.7.7 0 0 0-.7.7.7.7 0 0 0 .7.7.7.7 0 0 0 .7-.7zm-2.96-.7a.7.7 0 0 0-.7.7.7.7 0 0 0 .7.7.7.7 0 0 0 .7-.7.7.7 0 0 0-.7-.7zm5.06-1.7a1.55 1.55 0 0 0-1.55-1.54H12.1v-3.5h1.86a1.4 1.4 0 0 0 1-2.4L9.98.42A1.4 1.4 0 0 0 8 .41L3.06 5.36a1.4 1.4 0 0 0 1 2.4H5.9v3.49H1.55A1.55 1.55 0 0 0 0 12.8v3.65A1.55 1.55 0 0 0 1.55 18h14.9A1.55 1.55 0 0 0 18 16.45zM7.03 6.64H4.06a.28.28 0 0 1-.2-.48L8.8 1.21a.28.28 0 0 1 .4 0l4.95 4.94a.28.28 0 0 1-.2.48h-2.98v6.59a.28.28 0 0 1-.28.28H7.3a.28.28 0 0 1-.28-.28zm9.84 6.17v3.65a.42.42 0 0 1-.42.42H1.55a.42.42 0 0 1-.43-.42V12.8a.42.42 0 0 1 .43-.43H5.9v.85a1.4 1.4 0 0 0 1.4 1.4h3.38a1.4 1.4 0 0 0 1.4-1.4v-.85h4.36a.42.42 0 0 1 .43.43z"/>
</svg>
