<svg xmlns="http://www.w3.org/2000/svg" width="15.75" height="18">
  <path d="M11.03 10.13c-1.01 0-1.5.56-3.15.56s-2.14-.57-3.15-.57A4.73 4.73 0 0 0 0 14.86v1.46A1.69 1.69 0 0 0 1.69 18h12.37a1.69 1.69 0 0 0 1.69-1.69v-1.46a4.73 4.73 0 0 0-4.72-4.72zm3.6 6.18a.56.56 0 0 1-.57.56H1.7a.56.56 0 0 1-.56-.56v-1.46a3.6 3.6 0 0 1 3.6-3.6c.68 0 1.37.56 3.15.56s2.46-.56 3.15-.56a3.6 3.6 0 0 1 3.6 3.6zM7.87 9a4.5 4.5 0 0 0 4.5-4.5A4.5 4.5 0 0 0 7.88 0a4.5 4.5 0 0 0-4.5 4.5A4.5 4.5 0 0 0 7.88 9zm0-7.88a3.38 3.38 0 0 1 3.38 3.38 3.38 3.38 0 0 1-3.38 3.38A3.38 3.38 0 0 1 4.5 4.5a3.38 3.38 0 0 1 3.38-3.38z"/>
</svg>
