<svg xmlns="http://www.w3.org/2000/svg" width="20.125" height="23" viewBox="0 0 20.125 23"><path d="M10.062-7.475c0-2.393-2.335-7.328-5.59-10.35a26.839,26.839,0,0,0-2.525,2.694,34.853,34.853,0,0,0-4.463-4.994c-4.414,4.1-7.547,9.432-7.547,12.65A10.209,10.209,0,0,0,0,2.875c.024,0,.047,0,.071,0s.027,0,.041,0c.084,0,.167-.016.251-.019A10.213,10.213,0,0,0,10.062-7.475Zm-18.687,0c0-2.256,2.134-6.623,6.112-10.65a32.783,32.783,0,0,1,3.3,3.839l1.1,1.51,1.18-1.446c.367-.449.99-1.152,1.392-1.57C7-12.945,8.625-9.086,8.625-7.475A9.038,9.038,0,0,1,6.1-1.177a6.3,6.3,0,0,0-.361-5.032c-.127-.242-.345-.628-.487-.862L4.233-8.751,2.938-7.274,1.777-5.949C.657-7.377-.888-9.341-1.085-9.567l-1.107-1.275-1.082,1.3C-5.2-7.232-6.469-5.561-6.469-3.485A6.618,6.618,0,0,0-6.03-1.114,9.028,9.028,0,0,1-8.625-7.475ZM.069,1.434a4.833,4.833,0,0,1-5.1-4.919c0-1.517.955-2.855,2.861-5.14C-1.9-8.311,1.715-3.7,1.715-3.7l2.3-2.629c.129.213.328.565.443.785A4.689,4.689,0,0,1,3.148.489a5.277,5.277,0,0,1-2.8.931C.254,1.423.163,1.433.069,1.434Z" transform="translate(10.063 20.125)"/></svg>
