<svg xmlns="http://www.w3.org/2000/svg" width="20.125" height="23" viewBox="0 0 20.125 23"><path d="M-1.438-15.318a.539.539,0,0,0-.539-.539h-1.8a.539.539,0,0,0-.539.539v1.8a.539.539,0,0,0,.539.539h1.8a.539.539,0,0,0,.539-.539Zm5.211-.539h-1.8a.539.539,0,0,0-.539.539v1.8a.539.539,0,0,0,.539.539h1.8a.539.539,0,0,0,.539-.539v-1.8A.539.539,0,0,0,3.773-15.857Zm-5.75,4.312h-1.8a.539.539,0,0,0-.539.539v1.8a.539.539,0,0,0,.539.539h1.8a.539.539,0,0,0,.539-.539v-1.8A.539.539,0,0,0-1.977-11.545Zm5.75,0h-1.8a.539.539,0,0,0-.539.539v1.8a.539.539,0,0,0,.539.539h1.8a.539.539,0,0,0,.539-.539v-1.8A.539.539,0,0,0,3.773-11.545Zm-5.75,4.312h-1.8a.539.539,0,0,0-.539.539v1.8a.539.539,0,0,0,.539.539h1.8A.539.539,0,0,0-1.438-4.9v-1.8A.539.539,0,0,0-1.977-7.232Zm5.75,0h-1.8a.539.539,0,0,0-.539.539v1.8a.539.539,0,0,0,.539.539h1.8A.539.539,0,0,0,4.312-4.9v-1.8A.539.539,0,0,0,3.773-7.232Zm6.289,9.209a.539.539,0,0,0-.539-.539h-.9V-19.047a1.078,1.078,0,0,0-1.078-1.078H-7.547a1.078,1.078,0,0,0-1.078,1.078V1.437h-.9a.539.539,0,0,0-.539.539v.9H10.062ZM7.187,1.437H1.437V-2.381A.539.539,0,0,0,.9-2.92H-.9a.539.539,0,0,0-.539.539V1.437h-5.75V-18.687H7.187Z" transform="translate(10.063 20.125)"/></svg>
