<svg xmlns="http://www.w3.org/2000/svg" width="23.003" height="20.125" viewBox="0 0 23.003 20.125"><path d="M0-6.828A1.076,1.076,0,0,0-1.078-5.75,1.076,1.076,0,0,0,0-4.672,1.076,1.076,0,0,0,1.078-5.75,1.076,1.076,0,0,0,0-6.828ZM-.382-7.906H.382a.362.362,0,0,0,.359-.337l.314-5.031A.36.36,0,0,0,.7-13.656H-.7a.36.36,0,0,0-.359.382l.314,5.031A.362.362,0,0,0-.382-7.906ZM0-18.687c-6.352,0-11.5,4.182-11.5,9.344A8.258,8.258,0,0,0-9.124-3.67,11.4,11.4,0,0,1-11.208-.382,1.078,1.078,0,0,0-11.415.786a1.081,1.081,0,0,0,.993.651A10.9,10.9,0,0,0-4.173-.642,13.875,13.875,0,0,0,0,0C6.352,0,11.5-4.182,11.5-9.344S6.352-18.687,0-18.687ZM0-1.437a12.391,12.391,0,0,1-3.737-.575l-.683-.216L-5-1.815A9.693,9.693,0,0,1-9.613-.036,12.119,12.119,0,0,0-7.78-3.163L-7.462-4l-.615-.656a6.79,6.79,0,0,1-1.986-4.685C-10.063-13.7-5.548-17.25,0-17.25S10.062-13.7,10.062-9.344,5.548-1.437,0-1.437Z" transform="translate(11.503 18.687)"/></svg>
