<svg viewBox="0 0 496 2177" xmlns="http://www.w3.org/2000/svg" xmlns:xlink="http://www.w3.org/1999/xlink"><defs><rect id="a" x="0" y="0" width="497" height="496" rx="69"/></defs><g fill="none" fill-rule="evenodd"><path d="M608.172 211.05c13.672 0 24.984-4.02 33.935-12.06 8.952-8.04 13.428-18.929 13.428-32.666V86.93L670.77 84V66.812h-58.887V84l15.234 2.93v79.394c0 7.097-1.839 12.68-5.517 16.748-3.679 4.07-8.155 6.104-13.428 6.104-6.055 0-10.873-1.71-14.453-5.127-3.581-3.418-5.371-8.87-5.371-16.358h-27.735l-.195.586c-.326 14.063 3.841 24.707 12.5 31.934 8.659 7.226 20.41 10.84 35.254 10.84zm106.25 0c6.25 0 11.8-1.204 16.65-3.613 4.85-2.408 8.968-5.566 12.354-9.472a42.75 42.75 0 001.367 5.615 51.569 51.569 0 002.05 5.42h32.91v-17.09l-8.69-1.172a32.655 32.655 0 01-.342-4.101 202.615 202.615 0 01-.05-4.59v-43.652c0-11.85-4.084-20.98-12.255-27.393-8.17-6.413-18.799-9.62-31.885-9.62-7.942 0-15.283 1.205-22.021 3.614-6.739 2.409-12.712 5.371-17.92 8.887l-.098 23.437h21.485l1.855-11.328c1.563-1.041 3.613-1.937 6.152-2.685 2.54-.75 5.437-1.123 8.692-1.123 5.729 0 10.058 1.4 12.988 4.199 2.93 2.8 4.395 6.738 4.395 11.816v10.352h-14.551c-15.365 0-27.018 2.702-34.961 8.105-7.943 5.404-11.914 13.054-11.914 22.95 0 9.7 3.043 17.366 9.13 22.998 6.088 5.631 14.307 8.447 24.659 8.447zm7.715-21.093c-4.102 0-7.308-1.01-9.62-3.027-2.31-2.019-3.466-4.818-3.466-8.399 0-3.971 1.562-7.373 4.687-10.205s7.715-4.248 13.77-4.248h14.55v16.113c-1.953 2.8-4.687 5.127-8.203 6.983-3.515 1.855-7.421 2.783-11.718 2.783zM842.059 209v-17.09l-12.305-2.93v-57.03a19.384 19.384 0 017.178-6.202c2.897-1.465 6.266-2.197 10.107-2.197 5.208 0 9.115 1.611 11.719 4.834 2.604 3.222 3.906 8.74 3.906 16.553v44.042l-11.523 2.93V209h51.464v-17.09l-11.523-2.93v-49.414c0-.911-.033-1.806-.098-2.685a43.875 43.875 0 01-.097-3.174c1.758-3.19 4.118-5.68 7.08-7.47 2.962-1.791 6.461-2.686 10.498-2.686 5.143 0 9.017 1.562 11.62 4.687 2.605 3.125 3.907 8.692 3.907 16.7v44.042l-12.304 2.93V209h54.59v-17.09l-13.77-2.93v-43.945c0-14.713-3.011-25.667-9.033-32.861-6.023-7.194-14.242-10.791-24.659-10.791-7.03 0-13.15 1.595-18.359 4.785-5.208 3.19-9.44 7.617-12.695 13.281-2.474-6.054-6.12-10.58-10.938-13.574-4.817-2.995-10.612-4.492-17.383-4.492-6.705 0-12.614 1.383-17.724 4.15-5.11 2.767-9.359 6.69-12.744 11.768l-1.172-13.965h-41.7v17.187l15.235 2.93v65.527l-13.77 2.93V209h54.493zm183.984 2.05c8.529 0 16.26-1.171 23.193-3.515 6.934-2.344 12.582-5.24 16.944-8.691l-7.715-17.578c-4.948 2.734-9.505 4.736-13.672 6.005-4.167 1.27-9.408 1.905-15.723 1.905-7.096 0-12.711-2.246-16.845-6.738-4.135-4.493-6.462-10.222-6.983-17.188l.196-.586h63.085v-15.527c0-14.649-3.938-26.27-11.816-34.864-7.878-8.593-18.945-12.89-33.203-12.89-14.518-.065-26.09 4.98-34.717 15.137-8.626 10.156-12.94 23.079-12.94 38.77v3.905c0 15.04 4.558 27.442 13.673 37.207 9.114 9.766 21.289 14.649 36.523 14.649zm14.55-65.234h-34.96l-.293-.488c.716-6.575 2.604-11.881 5.664-15.918 3.06-4.036 7.226-6.055 12.5-6.055 5.73 0 10.01 1.807 12.842 5.42 2.832 3.614 4.248 8.448 4.248 14.502v2.54zm87.012 65.235c13.347 0 24.105-3.011 32.276-9.033 8.17-6.023 12.256-13.786 12.256-23.291 0-8.855-3.158-15.804-9.473-20.85-6.315-5.046-16.016-8.87-29.101-11.475-8.399-1.627-13.998-3.499-16.797-5.615-2.8-2.116-4.2-4.769-4.2-7.959 0-3.385 1.465-6.201 4.395-8.447 2.93-2.246 6.901-3.37 11.914-3.37 3.58 0 6.852.522 9.814 1.563 2.963 1.042 5.42 2.344 7.373 3.906l3.028 13.184h19.14l-.293-26.27c-4.166-3.45-9.912-6.282-17.236-8.496-7.324-2.213-15.088-3.32-23.29-3.32-13.477 0-23.862 3.207-31.153 9.62-7.292 6.412-10.938 14.045-10.938 22.9 0 8.593 3.174 15.38 9.522 20.361 6.347 4.98 15.739 8.74 28.174 11.28 8.203 1.757 13.834 3.775 16.894 6.054 3.06 2.279 4.59 4.98 4.59 8.105 0 3.581-1.514 6.413-4.541 8.497-3.027 2.083-7.438 3.125-13.232 3.125-3.19 0-6.25-.342-9.18-1.026-2.93-.683-5.241-1.741-6.934-3.174l-3.906-13.77h-19.922l.293 23.731c5.274 4.427 11.312 7.829 18.115 10.205 6.804 2.377 14.274 3.565 22.412 3.565zm163.184 0c15.755 0 28.45-3.516 38.086-10.547 9.635-7.031 14.453-16.634 14.453-28.809 0-11.653-4.053-21.06-12.158-28.222-8.106-7.162-20.003-12.924-35.693-17.286-10.938-3.45-18.637-6.722-23.096-9.814-4.46-3.092-6.69-7.047-6.69-11.865 0-5.209 2.133-9.457 6.397-12.744 4.264-3.288 10.303-4.932 18.115-4.932 5.339 0 10.384.586 15.137 1.758 4.752 1.172 8.366 2.539 10.84 4.101l3.71 19.532h21.387V83.12c-6.12-5.534-13.672-9.96-22.656-13.281-8.984-3.32-18.945-4.98-29.883-4.98-14.778.195-27.05 3.954-36.816 11.279-9.766 7.324-14.649 16.748-14.649 28.271 0 11.654 4.33 20.833 12.989 27.54 8.659 6.705 21.419 12.5 38.281 17.382 9.7 2.93 16.488 6.055 20.361 9.375 3.874 3.32 5.81 7.715 5.81 13.184 0 5.338-2.034 9.602-6.103 12.793-4.069 3.19-10.01 4.785-17.822 4.785-6.055 0-11.54-.765-16.455-2.295-4.915-1.53-8.805-3.467-11.67-5.81l-3.027-20.216h-22.07v29.688c6.054 6.315 13.622 11.263 22.704 14.844 9.083 3.58 19.255 5.37 30.518 5.37zm108.79 0c3.645 0 7.03-.244 10.155-.733a68.455 68.455 0 009.473-2.197l-2.441-20.605c-1.823.39-3.467.667-4.932.83-1.465.162-3.174.244-5.127.244-2.865 0-5.143-.88-6.836-2.637-1.693-1.758-2.539-4.687-2.539-8.789v-53.809h18.555v-20.02h-18.555V77.458h-28.418v25.879h-15.527v20.02h15.527v53.906c0 11.718 2.653 20.28 7.959 25.683 5.306 5.404 12.874 8.106 22.705 8.106zm80.859 0c8.528 0 16.26-1.172 23.193-3.516 6.933-2.344 12.581-5.24 16.943-8.691l-7.715-17.578c-4.948 2.734-9.505 4.736-13.671 6.005-4.167 1.27-9.408 1.905-15.723 1.905-7.097 0-12.712-2.246-16.846-6.738-4.134-4.493-6.461-10.222-6.982-17.188l.195-.586h63.086v-15.527c0-14.649-3.939-26.27-11.816-34.864-7.878-8.593-18.946-12.89-33.204-12.89-14.518-.065-26.09 4.98-34.716 15.137-8.627 10.156-12.94 23.079-12.94 38.77v3.905c0 15.04 4.557 27.442 13.672 37.207 9.115 9.766 21.29 14.649 36.524 14.649zm14.55-65.235h-34.96l-.294-.488c.717-6.575 2.605-11.881 5.664-15.918 3.06-4.036 7.227-6.055 12.5-6.055 5.73 0 10.01 1.807 12.842 5.42 2.832 3.614 4.248 8.448 4.248 14.502v2.54zm82.813-67.773V56.656h-28.516v21.387h28.516zM1591.473 209v-17.09l-13.672-2.93v-85.644h-43.75v17.187l15.234 2.93v65.527l-13.77 2.93V209h55.958zm61.523 0v-17.09l-11.523-2.93v-56.64c2.018-2.8 4.524-4.964 7.52-6.494 2.994-1.53 6.38-2.295 10.155-2.295 5.795 0 10.124 1.48 12.989 4.443 2.864 2.962 4.297 7.992 4.297 15.088v45.898l-12.207 2.93V209h54.492v-17.09l-13.672-2.93v-45.996c0-14.323-2.995-24.837-8.985-31.543-5.99-6.705-14.322-10.058-25-10.058-6.38 0-12.141 1.497-17.285 4.492-5.143 2.995-9.472 7.194-12.988 12.598l-1.27-15.137h-41.699v17.187l15.137 2.93v65.527l-13.672 2.93V209h53.711zm135.938 2.05c13.28 0 23.437-4.72 30.468-14.16 7.032-9.44 10.547-22.037 10.547-37.792v-2.051c0-16.862-3.515-30.355-10.547-40.479-7.03-10.123-17.252-15.185-30.664-15.185-5.534 0-10.433 1.14-14.697 3.418-4.264 2.278-7.926 5.534-10.986 9.765v-57.91H1719.5v17.188l15.137 2.93V209h24.61l2.05-12.988c3.125 4.883 6.966 8.61 11.523 11.181 4.558 2.572 9.929 3.858 16.114 3.858zm-7.227-22.167c-4.492 0-8.284-.847-11.377-2.54-3.092-1.692-5.517-4.166-7.275-7.421v-44.629c1.757-3.45 4.166-6.104 7.226-7.959 3.06-1.855 6.804-2.783 11.23-2.783 7.292 0 12.452 3.01 15.48 9.033 3.027 6.022 4.54 14.176 4.54 24.463v2.05c0 9.506-1.465 16.846-4.394 22.022-2.93 5.176-8.073 7.764-15.43 7.764zm96.29 22.168c6.25 0 11.8-1.205 16.65-3.613 4.85-2.41 8.968-5.567 12.353-9.473a42.75 42.75 0 001.367 5.615 51.567 51.567 0 002.051 5.42h32.91v-17.09l-8.691-1.172a32.655 32.655 0 01-.342-4.101 202.626 202.626 0 01-.049-4.59v-43.652c0-11.85-4.085-20.98-12.256-27.393-8.17-6.413-18.799-9.62-31.885-9.62-7.942 0-15.283 1.205-22.021 3.614-6.738 2.409-12.712 5.371-17.92 8.887l-.098 23.437h21.485l1.855-11.328c1.563-1.041 3.614-1.937 6.153-2.685 2.539-.75 5.436-1.123 8.691-1.123 5.73 0 10.059 1.4 12.988 4.199 2.93 2.8 4.395 6.738 4.395 11.816v10.352h-14.551c-15.365 0-27.018 2.702-34.96 8.105-7.944 5.404-11.915 13.054-11.915 22.95 0 9.7 3.044 17.366 9.13 22.998 6.088 5.631 14.308 8.447 24.66 8.447zm7.714-21.094c-4.102 0-7.308-1.01-9.62-3.027-2.31-2.019-3.466-4.818-3.466-8.399 0-3.971 1.563-7.373 4.688-10.205 3.124-2.832 7.714-4.248 13.769-4.248h14.55v16.113c-1.952 2.8-4.687 5.127-8.202 6.983-3.516 1.855-7.422 2.783-11.72 2.783zm116.894 21.094c12.305 0 22.592-3.597 30.86-10.791 8.268-7.194 12.272-16.13 12.012-26.807l-.293-.586h-25.782c0 4.948-1.53 8.903-4.59 11.865-3.06 2.963-7.128 4.444-12.207 4.444-7.682 0-13.053-2.881-16.113-8.643-3.06-5.762-4.59-13.362-4.59-22.803v-2.93c0-9.244 1.66-16.796 4.98-22.655 3.321-5.86 9.018-8.79 17.09-8.79 2.67 0 5.046.407 7.13 1.221 2.083.814 3.84 1.84 5.273 3.076l4.688 16.504h23.144l-.39-28.222c-4.493-4.623-10.124-8.204-16.895-10.743-6.771-2.539-14.42-3.808-22.95-3.808-16.21 0-28.694 5.013-37.45 15.039-8.757 10.026-13.135 22.819-13.135 38.379v2.93c0 15.624 4.264 28.417 12.793 38.378 8.528 9.961 20.67 14.942 36.425 14.942zM2111.297 209v-17.09l-12.305-2.93v-57.226a20.766 20.766 0 017.47-6.055c2.963-1.432 6.43-2.148 10.401-2.148 5.73 0 10.043 1.709 12.94 5.127 2.897 3.418 4.345 9.228 4.345 17.431v42.871l-12.304 2.93V209h54.492v-17.09l-13.672-2.93v-42.675c0-15.3-3.141-26.612-9.424-33.936-6.282-7.324-14.957-10.986-26.025-10.986-5.86 0-11.198 1.35-16.016 4.053-4.817 2.701-8.887 6.494-12.207 11.376V56.657h-43.652v17.188l15.234 2.93V188.98l-13.77 2.93V209h54.493zM612.37 449c12.826 0 24.203-2.767 34.131-8.3 9.928-5.535 17.578-13.412 22.95-23.634 5.37-10.22 8.056-22.07 8.056-35.546v-7.13c0-13.28-2.67-25.064-8.008-35.35-5.339-10.287-12.874-18.23-22.607-23.83-9.733-5.598-20.883-8.397-33.448-8.397h-41.992V449h40.918zm-.098-19.727H596.16V326.734h17.285c12.76 0 22.494 4.07 29.2 12.207 6.705 8.138 10.058 19.922 10.058 35.352v7.91c-.13 15.17-3.662 26.807-10.596 34.912-6.933 8.106-16.878 12.158-29.834 12.158zm134.082 21.68c8.79 0 16.716-1.741 23.78-5.224 7.064-3.484 12.711-8.383 16.943-14.698l-12.793-12.207c-6.836 8.79-15.69 13.184-26.562 13.184-7.748 0-14.177-2.54-19.287-7.617-5.111-5.079-8.025-11.98-8.74-20.704h69.042v-9.57c0-16.797-3.922-29.785-11.767-38.965-7.845-9.18-18.962-13.77-33.35-13.77-9.05 0-17.253 2.312-24.61 6.934-7.356 4.623-13.069 11.084-17.138 19.385-4.069 8.301-6.103 17.725-6.103 28.272v2.93c0 15.755 4.67 28.368 14.013 37.841 9.343 9.473 21.533 14.21 36.572 14.21zm18.946-64.648h-45.215c1.107-8.138 3.662-14.486 7.666-19.043 4.004-4.558 9.261-6.836 15.771-6.836 6.576 0 11.72 2.034 15.43 6.103 3.711 4.07 5.827 10.075 6.348 18.018v1.758zm81.64 64.648c12.76 0 23.08-2.946 30.957-8.838 7.878-5.892 11.817-13.59 11.817-23.095 0-5.665-1.286-10.482-3.858-14.454-2.571-3.97-6.51-7.373-11.816-10.205-5.306-2.832-12.614-5.273-21.924-7.324-9.31-2.05-15.495-4.085-18.554-6.103-3.06-2.019-4.59-4.85-4.59-8.497 0-4.036 1.644-7.259 4.931-9.667 3.288-2.41 7.536-3.614 12.744-3.614 5.6 0 10.092 1.514 13.477 4.541 3.385 3.028 5.078 6.82 5.078 11.377h23.73c0-9.96-3.89-18.066-11.67-24.316-7.78-6.25-17.984-9.375-30.615-9.375-11.849 0-21.614 3.06-29.296 9.18-7.683 6.12-11.524 13.736-11.524 22.851 0 10.872 5.925 19.173 17.774 24.902 5.403 2.605 12.141 4.753 20.214 6.446 8.073 1.692 13.851 3.646 17.334 5.86 3.483 2.213 5.225 5.435 5.225 9.667 0 3.841-1.628 6.95-4.883 9.326-3.255 2.377-8.008 3.565-14.258 3.565-6.445 0-11.62-1.514-15.527-4.541-3.906-3.028-6.022-7.34-6.348-12.94h-23.047c0 6.315 1.889 12.207 5.665 17.676 3.776 5.469 9.049 9.766 15.82 12.89 6.77 3.126 14.486 4.688 23.144 4.688zm76.856-122.558c4.297 0 7.617-1.189 9.96-3.565 2.345-2.376 3.516-5.355 3.516-8.935 0-3.646-1.171-6.674-3.515-9.082-2.344-2.41-5.664-3.614-9.961-3.614-4.297 0-7.601 1.205-9.912 3.613-2.311 2.41-3.467 5.437-3.467 9.083 0 3.58 1.156 6.559 3.467 8.935 2.311 2.376 5.615 3.565 9.912 3.565zM935.613 449V343.336h-23.73V449h23.73zm66.992 41.602c14.649 0 26.286-4.004 34.913-12.012 8.626-8.008 12.939-18.945 12.939-32.813V343.336h-21.387l-1.074 10.644c-6.901-8.398-16.374-12.597-28.418-12.597-12.76 0-22.998 4.899-30.713 14.697-7.715 9.798-11.572 22.9-11.572 39.307 0 17.383 3.922 30.99 11.768 40.82 7.845 9.83 17.952 14.746 30.322 14.746 11.393 0 20.508-3.808 27.344-11.426v7.13c0 8.267-2.28 14.534-6.836 18.798-4.558 4.264-10.775 6.397-18.653 6.397-10.677 0-19.661-4.33-26.953-12.989l-11.23 14.258c3.84 5.208 9.456 9.424 16.845 12.647 7.39 3.222 14.958 4.834 22.705 4.834zm2.832-58.985c-7.682 0-13.688-3.043-18.017-9.13-4.33-6.088-6.494-14.438-6.494-25.05 0-12.044 2.164-21.158 6.494-27.343 4.33-6.185 10.4-9.278 18.213-9.278 9.57 0 16.601 4.004 21.094 12.012v46.485c-4.623 8.203-11.72 12.304-21.29 12.304zM1098.211 449v-75.195c4.687-8.66 11.816-12.989 21.387-12.989 6.575 0 11.312 1.612 14.209 4.834 2.897 3.223 4.345 8.187 4.345 14.893V449h23.73v-69.824c-.39-25.196-11.588-37.793-33.593-37.793-12.695 0-22.95 4.72-30.762 14.16l-.683-12.207h-22.364V449h23.73zm188.379 1.953c15.56 0 27.88-3.5 36.963-10.498 9.082-6.999 13.623-16.422 13.623-28.271 0-7.292-1.563-13.656-4.688-19.092-3.125-5.436-8.04-10.254-14.746-14.453-6.706-4.2-15.592-7.943-26.66-11.23-11.068-3.289-19.01-6.674-23.828-10.157-4.818-3.483-7.227-7.829-7.227-13.037 0-6.185 2.23-11.003 6.69-14.453 4.46-3.45 10.726-5.176 18.799-5.176 8.658 0 15.315 2.1 19.97 6.299 4.655 4.199 6.983 10.01 6.983 17.431h24.61c0-8.203-2.214-15.673-6.641-22.412-4.428-6.738-10.515-11.93-18.262-15.576-7.748-3.646-16.57-5.469-26.465-5.469-14.909 0-27.035 3.711-36.377 11.133-9.342 7.422-14.014 16.862-14.014 28.32 0 13.086 6.478 23.698 19.434 31.836 6.77 4.232 15.885 8.073 27.344 11.524 11.458 3.45 19.384 6.868 23.779 10.254 4.394 3.385 6.592 8.203 6.592 14.453 0 5.73-2.165 10.335-6.494 13.818-4.33 3.483-10.791 5.225-19.385 5.225-9.961 0-17.61-2.214-22.95-6.64-5.338-4.428-8.007-10.678-8.007-18.75h-24.707c0 8.919 2.392 16.731 7.178 23.437 4.785 6.705 11.49 11.963 20.117 15.771 8.626 3.809 18.082 5.713 28.369 5.713zm78.906 40.723c15.43 0 26.367-8.887 32.813-26.66l41.992-121.68h-25.293l-21.485 71.68-22.363-71.68h-25.586l37.11 105.176-3.418 9.082c-1.758 5.143-4.15 8.805-7.178 10.986-3.027 2.181-7.536 3.272-13.525 3.272l-4.493-.293v18.359c4.167 1.172 7.976 1.758 11.426 1.758zm128.223-40.723c12.76 0 23.08-2.946 30.957-8.838 7.877-5.892 11.816-13.59 11.816-23.095 0-5.665-1.286-10.482-3.857-14.454-2.572-3.97-6.51-7.373-11.817-10.205-5.306-2.832-12.614-5.273-21.923-7.324-9.31-2.05-15.495-4.085-18.555-6.103-3.06-2.019-4.59-4.85-4.59-8.497 0-4.036 1.644-7.259 4.932-9.667 3.287-2.41 7.535-3.614 12.744-3.614 5.599 0 10.09 1.514 13.476 4.541 3.386 3.028 5.078 6.82 5.078 11.377h23.73c0-9.96-3.889-18.066-11.669-24.316-7.78-6.25-17.985-9.375-30.615-9.375-11.85 0-21.615 3.06-29.297 9.18-7.682 6.12-11.524 13.736-11.524 22.851 0 10.872 5.925 19.173 17.774 24.902 5.404 2.605 12.142 4.753 20.215 6.446 8.073 1.692 13.85 3.646 17.334 5.86 3.483 2.213 5.224 5.435 5.224 9.667 0 3.841-1.627 6.95-4.882 9.326-3.256 2.377-8.008 3.565-14.258 3.565-6.446 0-11.621-1.514-15.528-4.541-3.906-3.028-6.022-7.34-6.347-12.94h-23.047c0 6.315 1.888 12.207 5.664 17.676 3.776 5.469 9.05 9.766 15.82 12.89 6.771 3.126 14.486 4.688 23.145 4.688zm96.777 0c5.013 0 10.221-.749 15.625-2.246v-18.36c-2.8.652-5.566.977-8.3.977-4.102 0-6.95-.895-8.546-2.685-1.595-1.79-2.392-4.704-2.392-8.74v-58.985h18.652v-17.578h-18.652v-25.684h-23.73v25.684h-17.383v17.578h17.382v59.863c0 20.118 9.115 30.176 27.344 30.176zm79.688 0c8.789 0 16.715-1.741 23.779-5.224 7.064-3.484 12.711-8.383 16.943-14.698l-12.793-12.207c-6.836 8.79-15.69 13.184-26.562 13.184-7.748 0-14.177-2.54-19.287-7.617-5.111-5.079-8.024-11.98-8.74-20.704h69.042v-9.57c0-16.797-3.922-29.785-11.767-38.965-7.845-9.18-18.962-13.77-33.35-13.77-9.05 0-17.252 2.312-24.61 6.934-7.356 4.623-13.069 11.084-17.138 19.385-4.069 8.301-6.103 17.725-6.103 28.272v2.93c0 15.755 4.67 28.368 14.013 37.841 9.343 9.473 21.534 14.21 36.573 14.21zm18.945-64.648h-45.215c1.107-8.138 3.662-14.486 7.666-19.043 4.004-4.558 9.261-6.836 15.772-6.836 6.575 0 11.718 2.034 15.43 6.103 3.71 4.07 5.826 10.075 6.347 18.018v1.758zM1754.656 449v-76.563c3.972-7.747 10.71-11.62 20.215-11.62 12.37 0 18.718 6.217 19.043 18.652V449h23.73l-.097-72.46c1.367-4.688 3.76-8.48 7.178-11.378 3.418-2.897 7.828-4.346 13.232-4.346 6.77 0 11.621 1.563 14.55 4.688 2.93 3.125 4.395 8.04 4.395 14.746V449h23.73v-69.434c-.13-12.565-3.043-22.07-8.74-28.515-5.696-6.446-14.371-9.668-26.025-9.668-13.932 0-24.74 5.403-32.422 16.21-5.208-10.807-14.876-16.21-29.004-16.21-12.89 0-23.046 4.33-30.468 12.988l-.684-11.035h-22.363V449h23.73z" fill="#455A64" fill-rule="nonzero"/><mask id="b" fill="#fff"><use xlink:href="#a"/></mask><g mask="url(#b)" fill-rule="nonzero"><path fill="#6F716D" d="M0-9h512v512H0z"/><path fill-opacity=".77" fill="#DFDCD9" d="M-12 197L278-27 28-197z"/><path fill-opacity=".67" fill="#F2F7FA" d="M232-7l168 124 94-134z"/><path fill-opacity=".76" fill="#D7D2B7" d="M472 137L436 13l122 64z"/><path fill-opacity=".55" fill="#261D05" d="M322 543l10-382 370 38z"/><path fill-opacity=".53" fill="#481F11" d="M192 183L74 149 186 25z"/><path fill-opacity=".69" fill="#0C0F0D" d="M82 169l-766 298 838-142z"/><path fill-opacity=".63" fill="#FDB1A7" d="M364 121L136 387l68-318z"/><path fill-opacity=".56" fill="#B37662" d="M212 493l24-320L522 33z"/><path fill-opacity=".43" fill="#190C15" d="M222 201l42-36 140 26z"/><path fill-opacity=".98" fill="#3E4351" d="M292 509L-68 241l56 506z"/><path fill-opacity=".91" fill="#D9DBDA" d="M166-597L96 51l258-40z"/><path fill-opacity=".74" fill="#E8A99E" d="M158 305L294 99 104 217z"/><path fill-opacity=".61" fill="#361B16" d="M318 29l36 86-182-78z"/><path fill-opacity=".7" fill="#535063" d="M118 263l108 194-130-74z"/><path fill-opacity=".43" fill="#F5F9E8" d="M242-357l200 522-88-44z"/><path fill-opacity=".66" fill="#F4BDA2" d="M256 373l-62 28-60-138z"/><path fill-opacity=".46" fill="#D3BABF" d="M306 393l16 130-116-82z"/><path fill-opacity=".57" fill="#FFACAF" d="M172 249l180-6-30-40z"/><path fill-opacity=".42" fill="#3D3B2B" d="M4 231l30-78-44-42z"/><path fill-opacity=".6" fill="#432D23" d="M106 161l86-128-12 182z"/><path fill-opacity=".43" fill="#F7E8DF" d="M102 147l-86 30 90-150z"/><path fill-opacity=".38" fill="#A69D67" d="M474 217l-96 44 24-244z"/><path fill-opacity=".48" fill="#310900" d="M268 397l118-12-164-64z"/><path fill-opacity=".61" fill="#000" d="M-4 257l98 116 32-122z"/><path fill-opacity=".51" fill="#051442" d="M518 541l-120-42 86-82z"/><path fill-opacity=".51" fill="#302700" d="M256 285l496 162-236-250z"/><path fill-opacity=".58" fill="#757C83" d="M54 347l102 12-208 86z"/><path fill-opacity=".72" fill="#816656" d="M198 187l-30 30 4-76z"/><path fill-opacity=".62" fill="#FFD777" d="M434 141l-56-16 48-26z"/><path fill-opacity=".51" fill="#FFFFC8" d="M484 41l22 76-48 18z"/><path fill-opacity=".5" fill="#415080" d="M476 379l-32 122-110-128z"/><path fill-opacity=".36" fill="#FFEDEC" d="M304 155l-116 28 36-110z"/><path fill-opacity=".34" fill="#192C00" d="M504 59l110-18-158-86z"/><path fill-opacity=".69" fill="#B76B61" d="M308 289l-66-16 42-80z"/><path fill-opacity=".55" fill="#D7A1A9" d="M314 89l-70 16 88 2z"/><path fill-opacity=".62" fill="#ED9383" d="M100 199l34-20 100 148z"/><path fill-opacity=".66" fill="#EDF1F5" d="M450-17L344 57 254-1z"/><path fill-opacity=".5" fill="#2C3200" d="M464 127l294 32-270 296z"/><path fill-opacity=".65" fill="#BF735E" d="M212 341l-52-78 184 42z"/><path fill-opacity=".5" fill="#3C4302" d="M496 135l-8 148L546 5z"/><path fill-opacity=".62" fill="#1C0B10" d="M148 311l-8-46-4 68z"/><path fill-opacity=".47" fill="#241D1B" d="M356 145L276 37l54 4z"/><path fill-opacity=".5" fill="#A0A9A2" d="M442-25l48 18-8 104z"/><path fill-opacity=".71" fill="#4F4C41" d="M132 171l-154 8 76 76z"/><path fill-opacity=".36" fill="#8995A0" d="M454 45L330 67l42 88z"/><path fill-opacity=".56" fill="#643B2A" d="M180 41l108 34-102 8z"/><path fill-opacity=".33" fill="#1D0B13" d="M128 301l142 326-80-250z"/><path fill-opacity=".91" fill="#9C968E" d="M-8 69l-4-180L40 33z"/><path fill-opacity=".31" fill="#A9ADC5" d="M122 281l-28 92 52-28z"/><path fill-opacity=".39" fill="#1B0F12" d="M108 95l90 28V51z"/><path fill-opacity=".33" fill="#FFA695" d="M280 289l-26 34 52 44z"/><path fill-opacity=".63" fill="#6E592C" d="M496 177l-216 88 144 16z"/><path fill-opacity=".48" fill="#050220" d="M310 411l38-102 28 56z"/><path fill-opacity=".65" fill="#F3ACA9" d="M318 181l-28 56 44 10z"/><path fill-opacity=".45" fill="#010501" d="M150 283l-62-54-60 80z"/><path fill-opacity=".57" fill="#B9876A" d="M318 433l-92-92-24 96z"/><path fill-opacity=".48" fill="#C7D6F5" d="M496 457l26 92 100 14z"/><path fill-opacity=".54" fill="#7B7C8D" d="M102 345l16-64 48 172z"/><path fill-opacity=".31" fill="#EEECDF" d="M408 95l-38 54 38 16z"/><path fill-opacity=".4" fill="#613616" d="M322 425l-116-98 44-22z"/><path fill-opacity=".57" fill="#F4B7AF" d="M176 209l88-12-10 94z"/><path fill-opacity=".64" fill="#685F44" d="M430 111l58-32-98-8z"/><path fill-opacity=".66" fill="#E4EBF1" d="M88 107l110-82L96 49z"/><path fill-opacity=".65" fill="#FFFFCD" d="M492 131l-30-30 40-10z"/><path fill-opacity=".81" fill="#292833" d="M130 433l28 78 140-2z"/><path fill-opacity=".47" fill="#627072" d="M384 153l70 78-102-14z"/><path fill-opacity=".38" fill="#2E3A29" d="M146 177l2 16 88 2z"/><path fill-opacity=".55" fill="#AFB9BD" d="M446-3l86 86-96-14z"/><path fill-opacity=".43" fill="#17131D" d="M320 167l60 4-50 46z"/><path fill-opacity=".47" fill="#424A77" d="M334 401l96 56-122 78z"/><path fill-opacity=".49" fill="#C7A1AF" d="M356 163l-34-70-76 44z"/><path fill-opacity=".61" fill="#936959" d="M318 375l2 60-68-38z"/><path fill-opacity=".42" fill="#0F1117" d="M440 511l16-48-52 38z"/><path fill-opacity=".4" fill="#DFE0DB" d="M344 81l20 40 54-14z"/><path fill-opacity=".65" fill="#61413C" d="M290 165l6 10-78 6z"/><path fill-opacity=".41" fill="#FFE4D6" d="M144 301l28-50 8 122z"/><path fill-opacity=".61" fill="#6A7387" d="M74 397l-12 16-12-56z"/><path fill-opacity=".53" fill="#516284" d="M504 465l-94-88 58 14z"/><path fill-opacity=".42" fill="#C6D8F6" d="M378 511l-2-30 20 12z"/><path fill-opacity=".46" fill="#181F00" d="M432 249l-62 106 338-14z"/><path fill-opacity=".49" fill="#FFBCB7" d="M174 265l-54-10 48-44z"/><path fill-opacity=".22" fill="#FFDEB7" d="M32 183L48 49l34 128z"/><path fill-opacity=".52" fill="#D6DFE8" d="M400 15l-58 54 138-22z"/><path fill-opacity=".68" fill="#595C4E" d="M-6 321l-150 140 260-100z"/><path fill-opacity=".45" fill="#A76F58" d="M272 353l-28-44 60 58z"/><path fill-opacity=".63" fill="#A2A3A0" d="M42 177L22 99l-64-10z"/><path fill-opacity=".69" fill="#202234" d="M122 433l-14-64 64 96z"/><path fill-opacity=".5" fill="#4C000D" d="M326 291l-44 4-22-14z"/><path fill-opacity=".12" fill="#89A6FF" d="M98 361L-2 405l114 2z"/><path fill-opacity=".5" fill="#CC4E45" d="M156 209l-26 48-2-34z"/><path fill-opacity=".6" fill="#AA9976" d="M476 143l-76 20 60-70z"/><path fill-opacity=".3" fill="#271F1D" d="M140 61l82-38-74 136z"/><path fill-opacity=".52" fill="#120B0A" d="M254 191l20 8 6-14z"/><path fill-opacity=".35" fill="#755052" d="M240 173l48 52-58-18z"/><path fill-opacity=".57" fill="#8D9BAB" d="M196 417l50 68 80 6z"/><path fill-opacity=".43" fill="#D5DEE8" d="M316 439l-36 18 22-28z"/><path fill-opacity=".65" fill="#F7E7E8" d="M44 9l-72-218L144 1z"/><path fill-opacity=".45" fill="#7F5646" d="M102 243L92 131l64-28z"/><path fill-opacity=".55" fill="#000" d="M336 85l10 48-28-48z"/><path fill-opacity=".47" fill="#0F2439" d="M238 449l14-4-2 16z"/></g></g></svg>
